<svg id="Capa_1" enable-background="new 0 0 512 512" height="512" viewBox="0 0 512 512" width="512" xmlns="http://www.w3.org/2000/svg"><g><path d="m290.819 45.789h-69.638c-11.825 0-22.635 6.681-27.924 17.258l-24.672 49.344h174.829l-24.672-49.344c-5.287-10.577-16.098-17.258-27.923-17.258z" fill="#5766cb"/><path d="m282.934 79.09h-53.868c-3.902 0-7.469 2.205-9.214 5.695l-13.803 27.606h99.902l-13.803-27.606c-1.745-3.491-5.312-5.695-9.214-5.695z" fill="#90d8f9"/><path d="m447.48 112.39h-49.951v-22.894c0-5.747 4.659-10.407 10.406-10.407h29.138c5.747 0 10.406 4.659 10.406 10.407v22.894z" fill="#df75a5"/><path d="m118.634 112.39h-66.601v-22.894c0-5.747 4.659-10.407 10.407-10.407h45.789c5.747 0 10.407 4.659 10.407 10.407v22.894z" fill="#d8e2f1"/><path d="m470.374 466.212h-428.748c-22.989 0-41.626-18.637-41.626-41.626v-270.57c0-22.989 18.637-41.626 41.626-41.626h428.748c22.989 0 41.626 18.637 41.626 41.626v270.569c0 22.99-18.636 41.627-41.626 41.627z" fill="#707dd3"/><path d="m256 147.773c-95.254 0-172.748 77.495-172.748 172.748 0 61.154 31.944 114.984 80.02 145.691h185.457c48.076-30.707 80.02-84.537 80.02-145.691-.001-95.254-77.495-172.748-172.749-172.748z" fill="#5766cb"/><path d="m470.374 112.39h-43.707c22.989 0 41.626 18.637 41.626 41.626v270.569c0 22.989-18.637 41.626-41.626 41.626h43.707c22.989 0 41.626-18.637 41.626-41.626v-270.569c0-22.989-18.636-41.626-41.626-41.626z" fill="#5766cb"/><path d="m0 174.829h512v228.943h-512z" fill="#d8e2f1"/><path d="m83.252 320.52c0 30.167 7.786 58.545 21.435 83.252h302.627c13.649-24.707 21.435-53.085 21.435-83.252 0-61.154-31.944-114.984-80.02-145.691h-185.457c-48.076 30.707-80.02 84.538-80.02 145.691z" fill="#b9cbea"/><path d="m468.293 174.829h43.707v228.943h-43.707z" fill="#b9cbea"/><circle cx="256" cy="320.52" fill="#5766cb" r="145.691"/><path d="m326.36 192.925c11.527 20.859 18.095 44.841 18.095 70.36 0 80.463-65.228 145.691-145.691 145.691-25.519 0-49.501-6.568-70.36-18.096 24.819 44.912 72.651 75.331 127.596 75.331 80.463 0 145.691-65.228 145.691-145.691 0-54.944-30.419-102.776-75.331-127.595z" fill="#3d4fc3"/><circle cx="256" cy="320.52" fill="#90d8f9" r="112.39"/><path d="m315.12 224.978c10.673 17.186 16.848 37.444 16.848 59.12 0 61.973-50.418 112.39-112.39 112.39-21.676 0-41.934-6.174-59.12-16.848 19.842 31.949 55.247 53.27 95.543 53.27 61.972 0 112.39-50.418 112.39-112.39-.001-40.296-21.322-75.701-53.271-95.542z" fill="#75cef9"/><circle cx="219.057" cy="283.577" fill="#e4f6ff" r="24.976"/></g></svg>