<svg id="Capa_1" enable-background="new 0 0 512 512" height="512" viewBox="0 0 512 512" width="512" xmlns="http://www.w3.org/2000/svg"><g><g><g><g><g><g><g><path d="m319.623 0h-206.584c-4.428 0-8.756.963-12.705 2.773-1.728.792-2.843 2.513-2.843 4.413v68.513c0 10.443-8.466 18.909-18.909 18.909h-68.513c-1.901 0-3.622 1.115-4.413 2.843-1.81 3.949-2.773 8.278-2.773 12.705v371.344c0 16.845 13.655 30.5 30.5 30.5h286.24c16.845 0 30.5-13.655 30.5-30.5v-451c-.001-16.845-13.656-30.5-30.5-30.5z" fill="#f4fbff"/><path d="m375.156 0h-65.492c16.845 0 30.5 13.655 30.5 30.5v451c0 16.845-13.655 30.5-30.5 30.5h65.492c16.845 0 30.5-13.655 30.5-30.5v-451c0-16.845-13.655-30.5-30.5-30.5z" fill="#e4f6ff"/><path d="m11.816 88.59 79.657-79.657c2.608-2.608 5.64-4.695 8.933-6.193v75.874c0 10.443-8.466 18.909-18.909 18.909h-75.874c1.499-3.294 3.585-6.325 6.193-8.933z" fill="#e28086"/></g></g></g></g><path d="m330.572 97.523h-158.614c-5.298 0-9.593-4.295-9.593-9.593v-25.069c0-5.298 4.295-9.593 9.593-9.593h158.614c5.298 0 9.593 4.295 9.593 9.593v25.069c0 5.298-4.295 9.593-9.593 9.593z" fill="#cbe2ff"/><g><g><path d="m258.862 194.709h-197.778c-4.267 0-7.726-3.459-7.726-7.726s3.458-7.726 7.726-7.726h197.778c4.267 0 7.726 3.459 7.726 7.726s-3.459 7.726-7.726 7.726z" fill="#407093"/></g><g><path d="m258.862 248.996h-197.778c-4.267 0-7.726-3.459-7.726-7.726s3.458-7.726 7.726-7.726h197.778c4.267 0 7.726 3.459 7.726 7.726s-3.459 7.726-7.726 7.726z" fill="#407093"/></g><g><path d="m258.862 303.281h-197.778c-4.267 0-7.726-3.459-7.726-7.726s3.458-7.726 7.726-7.726h197.778c4.267 0 7.726 3.459 7.726 7.726s-3.459 7.726-7.726 7.726z" fill="#407093"/></g><g><path d="m258.862 357.567h-197.778c-4.267 0-7.726-3.459-7.726-7.726s3.458-7.726 7.726-7.726h197.778c4.267 0 7.726 3.459 7.726 7.726s-3.459 7.726-7.726 7.726z" fill="#407093"/></g><g><path d="m160.226 437.125h-99.142c-4.267 0-7.726-3.459-7.726-7.726s3.458-7.726 7.726-7.726h99.143c4.267 0 7.726 3.459 7.726 7.726s-3.459 7.726-7.727 7.726z" fill="#407093"/></g></g></g><path d="m438.535 453.674-28.333-17.442c-2.788-1.716-6.304-1.716-9.092 0l-28.333 17.442c-5.778 3.557-13.218-.6-13.218-7.385v-112.21h92.194v112.21c0 6.785-7.44 10.942-13.218 7.385z" fill="#e8ae4d"/><g><g><g><g><g><path d="m387.163 375.428c35.887-18.755 60.309-55.773 60.309-98.374s-24.421-79.619-60.309-98.374c-5.847 7.373-15.586 10.482-24.637 7.841-14.547-4.245-29.185 6.39-29.643 21.537-.288 9.518-6.37 17.889-15.333 21.104-14.264 5.116-19.855 22.325-11.323 34.848 5.361 7.869 5.361 18.217 0 26.086-8.533 12.523-2.941 29.732 11.323 34.848 8.963 3.215 15.045 11.587 15.333 21.104.458 15.147 15.096 25.782 29.643 21.537 9.051-2.639 18.79.471 24.637 7.843z" fill="#ffe07d"/><path d="m505.086 290.098c-5.361-7.869-5.361-18.217 0-26.086 8.532-12.523 2.941-29.731-11.323-34.848-8.963-3.215-15.045-11.587-15.333-21.104-.458-15.147-15.096-25.782-29.643-21.537-9.141 2.667-18.982-.531-24.81-8.061-9.274-11.985-27.367-11.985-36.641 0-1.306 1.688-2.814 3.158-4.47 4.393 35.76 16.29 60.618 52.342 60.618 94.201s-24.859 77.911-60.618 94.201c1.656 1.235 3.164 2.705 4.47 4.393 9.274 11.985 27.367 11.985 36.641 0 5.827-7.531 15.669-10.728 24.81-8.061 14.547 4.245 29.185-6.39 29.643-21.537.288-9.518 6.37-17.889 15.333-21.104 14.264-5.119 19.855-22.327 11.323-34.85z" fill="#ffd064"/><circle cx="405.656" cy="277.054" fill="#e8ae4d" r="57.025"/><path d="m462.681 277.054c0-22.932-13.537-42.703-33.055-51.757 8.813 15.224 13.857 32.902 13.857 51.757 0 18.856-5.045 36.534-13.857 51.757 19.519-9.054 33.055-28.824 33.055-51.757z" fill="#e5a32e"/></g></g></g></g></g></g><path d="m11.816 88.59 79.657-79.657c2.608-2.608 5.64-4.695 8.933-6.193v75.874c0 10.443-8.466 18.909-18.909 18.909h-75.874c1.499-3.294 3.585-6.325 6.193-8.933z" fill="#e28086"/></g></svg>