<?xml version="1.0"?>
<svg xmlns="http://www.w3.org/2000/svg" viewBox="0 0 64 64" width="512" height="512"><g id="Froppy_disk" data-name="Froppy disk"><path d="M61.707,10.293l-8-8A1,1,0,0,0,53,2H7A5.006,5.006,0,0,0,2,7V57a5.006,5.006,0,0,0,5,5H57a5.006,5.006,0,0,0,5-5V11A1,1,0,0,0,61.707,10.293ZM48,4V20a1,1,0,0,1-1,1H17a1,1,0,0,1-1-1V4ZM10,60V35a3,3,0,0,1,3-3H51a3,3,0,0,1,3,3V60Zm50-3a3,3,0,0,1-3,3H56V35a5.006,5.006,0,0,0-5-5H13a5.006,5.006,0,0,0-5,5V60H7a3,3,0,0,1-3-3V7A3,3,0,0,1,7,4h7V20a3,3,0,0,0,3,3H47a3,3,0,0,0,3-3V4h2.586L60,11.414Z"/><path d="M39,19h6a1,1,0,0,0,1-1V7a1,1,0,0,0-1-1H39a1,1,0,0,0-1,1V18A1,1,0,0,0,39,19ZM40,8h4v9H40Z"/><path d="M47,45H17a1,1,0,0,0,0,2H47a1,1,0,0,0,0-2Z"/><path d="M47,39H17a1,1,0,0,0,0,2H47a1,1,0,0,0,0-2Z"/><path d="M47,51H17a1,1,0,0,0,0,2H47a1,1,0,0,0,0-2Z"/></g></svg>
