<svg height="512" viewBox="0 0 64 64" width="512" xmlns="http://www.w3.org/2000/svg"><g id="Froppy_disk" data-name="Froppy disk"><path d="m49 3h-42a4 4 0 0 0 -4 4v50a4 4 0 0 0 4 4h50a4 4 0 0 0 4-4v-46l-8-8z" fill="#d1e7f8"/><path d="m49 3v17a2.006 2.006 0 0 1 -2 2h-30a2.006 2.006 0 0 1 -2-2v-17z" fill="#a7a9ac"/><path d="m39 7h6v11h-6z" fill="#58595b"/><path d="m51 31h-38a4 4 0 0 0 -4 4v26h46v-26a4 4 0 0 0 -4-4z" fill="#2488ff"/><path d="m3 56v1a4 4 0 0 0 4 4h2v-5z" fill="#bddbff"/><path d="m55 5v56h2a4 4 0 0 0 4-4v-46z" fill="#bddbff"/><path d="m47 56h-38v5h46v-13a8 8 0 0 1 -8 8z" fill="#006df0"/><g fill="#f1f2f2"><path d="m47 45h-30a1 1 0 0 0 0 2h30a1 1 0 0 0 0-2z"/><path d="m47 39h-30a1 1 0 0 0 0 2h30a1 1 0 0 0 0-2z"/><path d="m47 51h-30a1 1 0 0 0 0 2h30a1 1 0 0 0 0-2z"/></g></g></svg>