<svg id="Layer_1" enable-background="new 0 0 512 512" height="512" viewBox="0 0 512 512" width="512" xmlns="http://www.w3.org/2000/svg"><g><g><g><path d="m489.544 396.698h-368.688c-10.336 0-18.715-8.379-18.715-18.715v-330.874c0-11.21 9.087-20.297 20.297-20.297h365.524c11.21 0 20.297 9.087 20.297 20.297v330.874c0 10.336-8.379 18.715-18.715 18.715z" fill="#ffe2ce"/></g><path d="m487.962 26.811h-40.595c11.21 0 20.297 9.087 20.297 20.297v330.874c0 10.336-8.379 18.715-18.715 18.715h40.595c10.336 0 18.715-8.379 18.715-18.715v-330.873c0-11.21-9.087-20.298-20.297-20.298z" fill="#ffd9bf"/><path d="m508.259 99.152h-406.118v-52.043c0-11.21 9.087-20.297 20.297-20.297h365.524c11.21 0 20.297 9.087 20.297 20.297z" fill="#ff5781"/><path d="m487.962 26.811h-40.595c11.21 0 20.297 9.087 20.297 20.297v52.043h40.595v-52.042c0-11.21-9.087-20.298-20.297-20.298z" fill="#ff4170"/><g fill="#ffe563"><path d="m179.06 0c-4.204 0-7.611 3.408-7.611 7.611v38.399c0 4.204 3.408 7.611 7.611 7.611 4.204 0 7.611-3.408 7.611-7.611v-38.399c0-4.203-3.408-7.611-7.611-7.611z"/><path d="m229.39 0c-4.204 0-7.611 3.408-7.611 7.611v38.399c0 4.204 3.408 7.611 7.611 7.611 4.204 0 7.611-3.408 7.611-7.611v-38.399c0-4.203-3.408-7.611-7.611-7.611z"/><path d="m279.72 0c-4.204 0-7.611 3.408-7.611 7.611v38.399c0 4.204 3.408 7.611 7.611 7.611 4.204 0 7.612-3.408 7.612-7.611v-38.399c-.001-4.203-3.408-7.611-7.612-7.611z"/><path d="m330.05 0c-4.204 0-7.612 3.408-7.612 7.611v38.399c0 4.204 3.408 7.611 7.612 7.611s7.611-3.408 7.611-7.611v-38.399c0-4.203-3.407-7.611-7.611-7.611z"/><path d="m380.38 0c-4.204 0-7.611 3.408-7.611 7.611v38.399c0 4.204 3.408 7.611 7.611 7.611s7.612-3.408 7.612-7.611v-38.399c-.001-4.203-3.408-7.611-7.612-7.611z"/><path d="m430.71 0c-4.204 0-7.612 3.408-7.612 7.611v38.399c0 4.204 3.408 7.611 7.612 7.611s7.611-3.408 7.611-7.611v-38.399c0-4.203-3.407-7.611-7.611-7.611z"/></g><g><g fill="#ffcba0"><path d="m235.74 142.373h49.417v49.417h-49.417z"/><path d="m325.243 142.373h49.417v49.417h-49.417z"/><path d="m414.745 142.373h49.417v49.417h-49.417z"/><path d="m235.74 223.813h49.417v49.417h-49.417z"/><path d="m325.243 223.813h49.417v49.417h-49.417z"/></g><path d="m414.745 223.813h49.417v49.417h-49.417z" fill="#ff5781"/><path d="m235.74 305.253h49.417v49.417h-49.417z" fill="#ffcba0"/><path d="m325.243 305.253h49.417v49.417h-49.417z" fill="#ffcba0"/><path d="m414.745 305.253h49.417v49.417h-49.417z" fill="#ffcba0"/></g></g><g><path d="m202.249 157.878v330.452c0 13.072-10.597 23.67-23.67 23.67h-151.169c-13.072 0-23.67-10.597-23.67-23.67v-330.452c0-13.072 10.597-23.67 23.67-23.67h151.17c13.072.001 23.669 10.598 23.669 23.67z" fill="#b5e6a8"/><path d="m178.58 134.209h-40.595c13.072 0 23.67 10.597 23.67 23.67v330.451c0 13.072-10.597 23.67-23.67 23.67h40.595c13.072 0 23.67-10.597 23.67-23.67v-330.452c-.001-13.072-10.598-23.669-23.67-23.669z" fill="#a5d998"/><g><g><path d="m68.219 512h-40.809c-13.072 0-23.67-10.597-23.67-23.67v-40.809c35.611 0 64.479 28.868 64.479 64.479z" fill="#3aa673"/></g><g><path d="m3.741 198.687v-40.809c0-13.072 10.597-23.67 23.67-23.67h40.809c-.001 35.611-28.869 64.479-64.479 64.479z" fill="#3aa673"/></g></g><g><g><path d="m137.771 134.209h40.809c13.072 0 23.67 10.597 23.67 23.67v40.809c-35.611-.001-64.479-28.869-64.479-64.479z" fill="#3aa673"/></g></g><g><ellipse cx="102.995" cy="323.104" fill="#3aa673" rx="62.796" ry="62.609"/><path d="m139.382 315.85h-1.956c-2.963-8.541-10.614-14.015-18.185-15.293-10.56-1.781-20.105 3.911-23.746 14.169-1.816 5.116-3.839 11.553-6.402 13.812-.335.296-1.388.74-2.891.453-5.339-1.008-5.139-8.365-2.589-11.929 0 0 5.676-6.429.094-11.25-6.172-5.33-11.262.905-11.262.905-1.668 1.801-3.688 4.991-4.847 9.132h-.99c-4.204 0-7.611 3.408-7.611 7.612s3.408 7.611 7.611 7.611h1.46c2.308 6.612 8.097 11.515 15.309 12.878 6.956 1.315 13.729-.983 17.676-5.993 3.76-4.775 6.446-11.54 8.789-18.139 1.498-4.219 4.563-4.642 6.866-4.251 3.25.549 6.761 3.269 6.792 7.945.036 5.33-.183 6.719-2.777 10.668-2.308 3.513-1.331 8.232 2.183 10.541 3.379 2.22 8.336 1.173 10.541-2.183 2.833-4.313 4.198-7.705 4.816-11.465h1.119c4.204 0 7.611-3.408 7.611-7.611 0-4.204-3.407-7.612-7.611-7.612z" fill="#b5e6a8"/></g></g><g><path d="m97.581 478.388h75.931v33.612h-75.931z" fill="#ffe563"/><path d="m97.581 444.775h75.931v33.612h-75.931z" fill="#ffb700"/><path d="m249.442 444.775h75.931v33.612h-75.931z" fill="#ffb700"/><path d="m173.512 478.388h75.931v33.612h-75.931z" fill="#ffb700"/><g fill="#ffe563"><path d="m173.512 444.775h75.931v33.612h-75.931z"/><path d="m97.581 411.163h75.931v33.612h-75.931z"/><path d="m173.512 377.551h75.931v33.612h-75.931z"/></g><path d="m173.512 411.163h75.931v33.612h-75.931z" fill="#ffb700"/><path d="m249.442 478.388h75.931v33.612h-75.931z" fill="#ffe563"/></g></g></svg>