<svg height="492pt" viewBox="-34 0 492 492.001" width="492pt" xmlns="http://www.w3.org/2000/svg"><path d="m357.035156 12.890625c-3.527344-1.25-7.238281-1.890625-10.980468-1.890625-18.871094 0-34.222657 15.972656-34.222657 35.609375v108.027344h21.960938v-108.027344c0-15.640625 9.746093-28.945313 23.242187-33.71875zm0 0" fill="#d4e1f4"/><path d="m71.957031 416.925781c-2.402343-2.023437-5.910156-2.023437-8.308593 0l-6.933594 5.765625 25.300781 21.054688 11.085937-9.226563zm0 0" fill="#d4e1f4"/><path d="m34.03125 53.222656c0-23.320312 18.234375-42.296875 40.652344-42.296875h-22.175782c-22.414062 0-40.648437 18.972657-40.648437 42.296875v383.976563l22.171875-18.453125zm0 0" fill="#d4e1f4"/><path d="m144.71875 416.925781c-2.398438-2.023437-5.910156-2.023437-8.308594 0l-6.933594 5.769531 25.292969 21.050782 11.085938-9.226563zm0 0" fill="#d4e1f4"/><g fill="#0635c9"><path d="m44.820312 203.464844h2.671876c3.316406 0 6-2.6875 6-6s-2.683594-6-6-6h-2.671876c-3.3125 0-6 2.6875-6 6s2.6875 6 6 6zm0 0"/><path d="m94.386719 191.464844h-20.203125c-3.3125 0-6 2.6875-6 6s2.6875 6 6 6h20.203125c3.316406 0 6-2.6875 6-6s-2.683594-6-6-6zm0 0"/><path d="m266.34375 191.464844h-144.835938c-3.3125 0-6 2.6875-6 6s2.6875 6 6 6h144.835938c3.3125 0 6-2.6875 6-6s-2.6875-6-6-6zm0 0"/><path d="m44.820312 146.480469h2.671876c3.316406 0 6-2.6875 6-6s-2.683594-6-6-6h-2.671876c-3.3125 0-6 2.6875-6 6s2.6875 6 6 6zm0 0"/><path d="m94.386719 134.480469h-20.203125c-3.3125 0-6 2.6875-6 6s2.6875 6 6 6h20.203125c3.316406 0 6-2.6875 6-6s-2.683594-6-6-6zm0 0"/><path d="m266.34375 134.480469h-144.835938c-3.3125 0-6 2.6875-6 6s2.6875 6 6 6h144.835938c3.3125 0 6-2.6875 6-6s-2.6875-6-6-6zm0 0"/><path d="m44.820312 89.5h2.671876c3.316406 0 6-2.6875 6-6s-2.683594-6-6-6h-2.671876c-3.3125 0-6 2.6875-6 6s2.6875 6 6 6zm0 0"/><path d="m94.386719 77.5h-20.203125c-3.3125 0-6 2.6875-6 6s2.6875 6 6 6h20.203125c3.316406 0 6-2.6875 6-6s-2.683594-6-6-6zm0 0"/><path d="m266.34375 77.5h-144.835938c-3.3125 0-6 2.6875-6 6s2.6875 6 6 6h144.835938c3.3125 0 6-2.6875 6-6s-2.6875-6-6-6zm0 0"/><path d="m44.820312 260.449219h2.671876c3.316406 0 6-2.6875 6-6 0-3.316407-2.683594-6-6-6h-2.671876c-3.3125 0-6 2.683593-6 6 0 3.3125 2.6875 6 6 6zm0 0"/><path d="m100.386719 254.449219c0-3.316407-2.683594-6-6-6h-20.203125c-3.3125 0-6 2.683593-6 6 0 3.3125 2.6875 6 6 6h20.203125c3.316406 0 6-2.6875 6-6zm0 0"/><path d="m215.359375 254.449219c0-3.316407-2.6875-6-6-6h-87.851563c-3.3125 0-6 2.683593-6 6 0 3.3125 2.6875 6 6 6h87.851563c3.3125 0 6-2.6875 6-6zm0 0"/><path d="m61.816406 322.550781c6.066406.003907 10.984375 4.921875 10.988282 10.988281 0 3.316407 2.6875 6 6 6s6-2.683593 6-6c-.015626-10.378906-6.972657-19.46875-16.988282-22.191406v-4.132812c0-3.316406-2.6875-6-6-6-3.316406 0-6 2.683594-6 6v4.132812c-11.128906 3.007813-18.3125 13.792969-16.792968 25.21875 1.515624 11.429688 11.261718 19.964844 22.792968 19.964844 6.066406-.03125 11.011719 4.859375 11.042969 10.929688.03125 6.070312-4.859375 11.015624-10.929687 11.046874-.039063 0-.078126-.007812-.113282-.007812-.039062 0-.078125 0-.117187.007812-6.023438-.066406-10.871094-4.964843-10.878907-10.984374 0-3.316407-2.6875-6-6-6s-6 2.683593-6 6c.015626 10.378906 6.972657 19.46875 16.992188 22.191406v4.90625c0 3.316406 2.683594 6 6 6 3.3125 0 6-2.683594 6-6v-4.90625c11.128906-3.007813 18.308594-13.792969 16.789062-25.222656-1.515624-11.425782-11.261718-19.960938-22.789062-19.960938-3.953125.039062-7.621094-2.050781-9.605469-5.464844-1.988281-3.417968-1.988281-7.636718 0-11.050781 1.984375-3.417969 5.652344-5.503906 9.605469-5.464844zm0 0"/><path d="m116.472656 363.226562c-3.3125 0-6 2.6875-6 6s2.6875 6 6 6h50.71875c3.3125 0 6-2.6875 6-6s-2.6875-6-6-6zm0 0"/><path d="m349.839844.0585938v-.0585938h-295.214844c-30.152344.0351562-54.5898438 24.472656-54.625 54.625v393.566406c0 2.308594 1.320312 4.410156 3.402344 5.410156 2.078125.996094 4.546875.71875 6.347656-.722656l33.652344-26.917968 33.652344 26.917968c2.195312 1.753906 5.308593 1.753906 7.5 0l33.644531-26.917968 33.648437 26.917968c2.191406 1.753906 5.308594 1.753906 7.5 0l37.398438-29.917968c.082031-.0625.160156-.128907.238281-.199219l5.316406-4.722657-7.96875-8.972656-5.199219 4.621094-33.527343 26.820312-33.644531-26.917968c-2.191407-1.753906-5.308594-1.753906-7.5 0l-33.648438 26.917968-33.660156-26.917968c-2.195313-1.753906-5.308594-1.753906-7.5 0l-27.652344 22.121094v-381.085938c.027344-23.53125 19.097656-42.597656 42.625-42.625h261.066406c-10.503906 9.164062-16.527344 22.417969-16.527344 36.355469v210.9375h12v-93.335938h78.714844c3.3125 0 6-2.683593 6-6v-111.601562c-.03125-25.792969-20.277344-47.03125-46.039062-48.2968752zm34.039062 153.9023442h-72.714844v-105.605469c.105469-20.003907 16.351563-36.164063 36.355469-36.164063 20.007813 0 36.253907 16.160156 36.359375 36.164063zm0 0"/></g><path d="m337.136719 295.214844h-65.328125c-12.9375.070312-23.375 10.601562-23.335938 23.539062v121.734375c-.007812 3.203125 1.816406 6.128907 4.703125 7.523438 2.882813 1.398437 6.308594 1.015625 8.816407-.980469.097656-.082031.199218-.164062.300781-.253906l44.152343-40.175782 40.007813 39.988282c.160156.15625.324219.304687.5.445312 2.507813 1.996094 5.933594 2.375 8.820313.980469 2.882812-1.394531 4.710937-4.320313 4.699218-7.523437v-121.738282c.042969-12.9375-10.398437-23.46875-23.335937-23.539062zm11.335937 136.421875-37.589844-37.574219c-2.265624-2.261719-5.910156-2.347656-8.28125-.191406l-42.128906 38.335937v-113.453125c-.046875-6.3125 5.023438-11.476562 11.335938-11.539062h65.328125c6.3125.0625 11.386719 5.222656 11.335937 11.539062zm0 0" fill="#1ae5be"/><path d="m304.472656 252.066406c-66.253906-.003906-119.96875 53.710938-119.96875 119.964844 0 66.257812 53.710938 119.96875 119.96875 119.96875 66.257813 0 119.96875-53.710938 119.96875-119.96875-.074218-66.222656-53.742187-119.894531-119.96875-119.964844zm0 227.933594c-59.628906 0-107.96875-48.339844-107.96875-107.96875s48.339844-107.96875 107.96875-107.96875 107.96875 48.339844 107.96875 107.96875c-.070312 59.601562-48.367187 107.902344-107.96875 107.96875zm0 0" fill="#1ae5be"/></svg>